<svg xmlns="http://www.w3.org/2000/svg" viewBox="0 0 1200 700" role="img" aria-label="Enterprise onboarding illustration">
  <defs>
    <linearGradient id="bgo" x1="0" y1="0" x2="1" y2="1">
      <stop offset="0%" stop-color="#0c1f33"/>
      <stop offset="100%" stop-color="#173a5a"/>
    </linearGradient>
  </defs>
  <rect width="1200" height="700" fill="url(#bgo)"/>
  <rect x="84" y="86" width="1032" height="528" rx="28" fill="#0d1a2a" stroke="#2d4f71" stroke-width="4"/>
  <rect x="130" y="136" width="940" height="78" rx="14" fill="#13304a"/>
  <rect x="150" y="262" width="300" height="280" rx="18" fill="#11273d"/>
  <rect x="480" y="262" width="280" height="280" rx="18" fill="#11273d"/>
  <rect x="790" y="262" width="280" height="280" rx="18" fill="#11273d"/>
  <circle cx="300" cy="334" r="44" fill="#4cc9f0" opacity="0.8"/>
  <circle cx="620" cy="334" r="44" fill="#4cc9f0" opacity="0.8"/>
  <circle cx="930" cy="334" r="44" fill="#4cc9f0" opacity="0.8"/>
  <rect x="220" y="402" width="160" height="22" rx="11" fill="#cfe8ff" opacity="0.75"/>
  <rect x="540" y="402" width="160" height="22" rx="11" fill="#cfe8ff" opacity="0.75"/>
  <rect x="850" y="402" width="160" height="22" rx="11" fill="#cfe8ff" opacity="0.75"/>
  <rect x="205" y="444" width="190" height="16" rx="8" fill="#9ec8f2" opacity="0.55"/>
  <rect x="525" y="444" width="190" height="16" rx="8" fill="#9ec8f2" opacity="0.55"/>
  <rect x="835" y="444" width="190" height="16" rx="8" fill="#9ec8f2" opacity="0.55"/>
</svg>
